<mxfile host="Electron" agent="Mozilla/5.0 (X11; Linux x86_64) AppleWebKit/537.36 (KHTML, like Gecko) draw.io/28.1.2 Chrome/138.0.7204.243 Electron/37.4.0 Safari/537.36" version="28.1.2">
  <diagram name="Page-1" id="VUupfpJNlbURULNmI9s1">
    <mxGraphModel dx="588" dy="527" grid="1" gridSize="10" guides="1" tooltips="1" connect="1" arrows="1" fold="1" page="1" pageScale="1" pageWidth="850" pageHeight="1100" math="0" shadow="0">
      <root>
        <mxCell id="0" />
        <mxCell id="1" parent="0" />
        <mxCell id="63oyYGpp-a3GvrfUXpGr-17" value="" style="html=1;whiteSpace=wrap;" parent="1" vertex="1">
          <mxGeometry x="110" y="10" width="490" height="420" as="geometry" />
        </mxCell>
        <mxCell id="63oyYGpp-a3GvrfUXpGr-1" value="user" style="shape=umlActor;verticalLabelPosition=bottom;verticalAlign=top;html=1;outlineConnect=0;" parent="1" vertex="1">
          <mxGeometry x="60" y="120" width="30" height="60" as="geometry" />
        </mxCell>
        <mxCell id="63oyYGpp-a3GvrfUXpGr-2" value="" style="endArrow=none;html=1;rounded=0;" parent="1" source="63oyYGpp-a3GvrfUXpGr-1" target="63oyYGpp-a3GvrfUXpGr-4" edge="1">
          <mxGeometry width="50" height="50" relative="1" as="geometry">
            <mxPoint x="140" y="140" as="sourcePoint" />
            <mxPoint x="163.80866786078195" y="115.1108804832644" as="targetPoint" />
          </mxGeometry>
        </mxCell>
        <mxCell id="63oyYGpp-a3GvrfUXpGr-4" value="compose email" style="ellipse;whiteSpace=wrap;html=1;" parent="1" vertex="1">
          <mxGeometry x="295" y="90" width="130" height="40" as="geometry" />
        </mxCell>
        <mxCell id="63oyYGpp-a3GvrfUXpGr-5" value="" style="endArrow=none;html=1;rounded=0;" parent="1" source="63oyYGpp-a3GvrfUXpGr-1" target="63oyYGpp-a3GvrfUXpGr-6" edge="1">
          <mxGeometry width="50" height="50" relative="1" as="geometry">
            <mxPoint x="310" y="250" as="sourcePoint" />
            <mxPoint x="170" y="160" as="targetPoint" />
          </mxGeometry>
        </mxCell>
        <mxCell id="63oyYGpp-a3GvrfUXpGr-6" value="reply to an email" style="ellipse;whiteSpace=wrap;html=1;" parent="1" vertex="1">
          <mxGeometry x="165" y="180" width="130" height="40" as="geometry" />
        </mxCell>
        <mxCell id="63oyYGpp-a3GvrfUXpGr-8" value="&amp;lt;&amp;lt;extend&amp;gt;&amp;gt;" style="html=1;verticalAlign=bottom;endArrow=open;dashed=1;endSize=8;curved=0;rounded=0;" parent="1" source="63oyYGpp-a3GvrfUXpGr-10" target="63oyYGpp-a3GvrfUXpGr-4" edge="1">
          <mxGeometry relative="1" as="geometry">
            <mxPoint x="410" y="100" as="sourcePoint" />
            <mxPoint x="290" y="230" as="targetPoint" />
          </mxGeometry>
        </mxCell>
        <mxCell id="63oyYGpp-a3GvrfUXpGr-10" value="send email" style="ellipse;whiteSpace=wrap;html=1;" parent="1" vertex="1">
          <mxGeometry x="425" y="30" width="120" height="40" as="geometry" />
        </mxCell>
        <mxCell id="63oyYGpp-a3GvrfUXpGr-11" value="" style="endArrow=none;html=1;rounded=0;" parent="1" source="63oyYGpp-a3GvrfUXpGr-1" target="63oyYGpp-a3GvrfUXpGr-12" edge="1">
          <mxGeometry width="50" height="50" relative="1" as="geometry">
            <mxPoint x="70" y="149.99846153846156" as="sourcePoint" />
            <mxPoint x="265.7726358302473" y="202.89967889373906" as="targetPoint" />
          </mxGeometry>
        </mxCell>
        <mxCell id="63oyYGpp-a3GvrfUXpGr-12" value="forward an email" style="ellipse;whiteSpace=wrap;html=1;" parent="1" vertex="1">
          <mxGeometry x="120" y="360" width="130" height="40" as="geometry" />
        </mxCell>
        <mxCell id="63oyYGpp-a3GvrfUXpGr-14" value="attach files to an email" style="ellipse;whiteSpace=wrap;html=1;" parent="1" vertex="1">
          <mxGeometry x="420" y="160" width="130" height="40" as="geometry" />
        </mxCell>
        <mxCell id="63oyYGpp-a3GvrfUXpGr-15" value="&amp;lt;&amp;lt;include&amp;gt;&amp;gt;" style="html=1;verticalAlign=bottom;endArrow=open;dashed=1;endSize=8;curved=0;rounded=0;exitX=0.5;exitY=0;exitDx=0;exitDy=0;" parent="1" source="63oyYGpp-a3GvrfUXpGr-16" target="63oyYGpp-a3GvrfUXpGr-14" edge="1">
          <mxGeometry relative="1" as="geometry">
            <mxPoint x="410" y="250" as="sourcePoint" />
            <mxPoint x="270" y="230" as="targetPoint" />
          </mxGeometry>
        </mxCell>
        <mxCell id="63oyYGpp-a3GvrfUXpGr-16" value="antivirus scan" style="ellipse;whiteSpace=wrap;html=1;" parent="1" vertex="1">
          <mxGeometry x="410" y="300" width="120" height="40" as="geometry" />
        </mxCell>
        <mxCell id="63oyYGpp-a3GvrfUXpGr-18" value="Messaging System" style="text;html=1;align=center;verticalAlign=middle;whiteSpace=wrap;rounded=0;fontStyle=1" parent="1" vertex="1">
          <mxGeometry x="210" y="10" width="240" height="30" as="geometry" />
        </mxCell>
        <mxCell id="NOzGRzM6cERQv-P8ZT_T-1" value="&amp;lt;&amp;lt;extend&amp;gt;&amp;gt;" style="html=1;verticalAlign=bottom;endArrow=open;dashed=1;endSize=8;curved=0;rounded=0;entryX=0.592;entryY=0.95;entryDx=0;entryDy=0;entryPerimeter=0;exitX=0.458;exitY=-0.008;exitDx=0;exitDy=0;exitPerimeter=0;" edge="1" parent="1" source="63oyYGpp-a3GvrfUXpGr-14" target="63oyYGpp-a3GvrfUXpGr-4">
          <mxGeometry relative="1" as="geometry">
            <mxPoint x="440" y="170.5" as="sourcePoint" />
            <mxPoint x="312" y="159.5" as="targetPoint" />
          </mxGeometry>
        </mxCell>
        <mxCell id="NOzGRzM6cERQv-P8ZT_T-2" value="&amp;lt;&amp;lt;extend&amp;gt;&amp;gt;" style="html=1;verticalAlign=bottom;endArrow=open;dashed=1;endSize=8;curved=0;rounded=0;entryX=1;entryY=0.5;entryDx=0;entryDy=0;exitX=0;exitY=0.5;exitDx=0;exitDy=0;" edge="1" parent="1" source="63oyYGpp-a3GvrfUXpGr-14" target="63oyYGpp-a3GvrfUXpGr-6">
          <mxGeometry relative="1" as="geometry">
            <mxPoint x="398" y="312" as="sourcePoint" />
            <mxPoint x="290" y="200" as="targetPoint" />
          </mxGeometry>
        </mxCell>
        <mxCell id="NOzGRzM6cERQv-P8ZT_T-3" value="toAll" style="ellipse;whiteSpace=wrap;html=1;" vertex="1" parent="1">
          <mxGeometry x="295" y="250" width="130" height="40" as="geometry" />
        </mxCell>
        <mxCell id="NOzGRzM6cERQv-P8ZT_T-4" value="toIndividual" style="ellipse;whiteSpace=wrap;html=1;" vertex="1" parent="1">
          <mxGeometry x="150" y="270" width="130" height="40" as="geometry" />
        </mxCell>
        <mxCell id="NOzGRzM6cERQv-P8ZT_T-5" value="" style="endArrow=block;html=1;rounded=0;exitX=0.5;exitY=0;exitDx=0;exitDy=0;entryX=0.5;entryY=1;entryDx=0;entryDy=0;endFill=0;" edge="1" parent="1" source="NOzGRzM6cERQv-P8ZT_T-4" target="63oyYGpp-a3GvrfUXpGr-6">
          <mxGeometry width="50" height="50" relative="1" as="geometry">
            <mxPoint x="320" y="230" as="sourcePoint" />
            <mxPoint x="370" y="180" as="targetPoint" />
          </mxGeometry>
        </mxCell>
        <mxCell id="NOzGRzM6cERQv-P8ZT_T-6" value="" style="endArrow=block;html=1;rounded=0;entryX=1;entryY=1;entryDx=0;entryDy=0;endFill=0;" edge="1" parent="1" source="NOzGRzM6cERQv-P8ZT_T-3" target="63oyYGpp-a3GvrfUXpGr-6">
          <mxGeometry width="50" height="50" relative="1" as="geometry">
            <mxPoint x="240" y="260" as="sourcePoint" />
            <mxPoint x="255" y="210" as="targetPoint" />
          </mxGeometry>
        </mxCell>
      </root>
    </mxGraphModel>
  </diagram>
</mxfile>
